<svg xmlns="http://www.w3.org/2000/svg" width="155.667" height="38.737" viewBox="0 0 155.667 38.737"><defs><style>.a{fill:#08152e;}</style></defs><g transform="translate(0.199 0.368)"><path class="a" d="M142.674,350.641a1.726,1.726,0,0,0-2.162-.738,14.843,14.843,0,0,1-11.492-.239,15.115,15.115,0,0,1-8.6-11.129,14.786,14.786,0,0,1,18.236-16.687,1.726,1.726,0,0,0,2.048-1.012l.371-.93a1.717,1.717,0,0,0-1.173-2.292,19.246,19.246,0,0,0-14.42,1.906l-.008-.015c-.345.2-.678.416-1.006.637a19.121,19.121,0,0,0-7.331,8.958,19.385,19.385,0,0,0,1.1,16.395,19.138,19.138,0,0,0,9.43,8.383l.005,0h0a19.25,19.25,0,0,0,14.624.059,1.717,1.717,0,0,0,.867-2.425Z" transform="translate(-115.792 -316.985)"/></g><path class="a" d="M134.56,354.644a19.311,19.311,0,1,1,17.962-12.163A19.207,19.207,0,0,1,134.56,354.644Zm.047-38.239a18.928,18.928,0,1,0,17.56,25.935l.178.071-.178-.071a18.928,18.928,0,0,0-17.56-25.935Z" transform="translate(-115.273 -316.022)"/><g transform="translate(42.983 4.278)"><g transform="translate(0 0)"><path class="a" d="M227.632,327.2h3.922v32h-3.922Z" transform="translate(-227.632 -327.205)"/></g><g transform="translate(8.879 9.736)"><path class="a" d="M267.879,369.694a36.607,36.607,0,0,0,.316,5.229h-3.561l-.36-2.749h-.091a8.249,8.249,0,0,1-6.671,3.245,6.267,6.267,0,0,1-6.671-6.265c0-5.274,4.688-8.159,13.117-8.068v-.5c0-1.8-.541-5.049-4.958-5.049a10.75,10.75,0,0,0-5.679,1.623l-.9-2.614a13.646,13.646,0,0,1,7.167-1.893c6.671,0,8.294,4.553,8.294,8.925Zm-3.831-5.86c-4.327-.135-9.241.631-9.241,4.868a3.508,3.508,0,0,0,3.741,3.786,5.49,5.49,0,0,0,5.319-3.651,6.56,6.56,0,0,0,.18-1.262Z" transform="translate(-250.841 -352.656)"/></g><g transform="translate(32.137 9.736)"><path class="a" d="M311.819,359.913c0-2.569-.09-4.733-.181-6.761h3.471l.135,4.282h.135a6.685,6.685,0,0,1,6.085-4.778,3.886,3.886,0,0,1,1.082.09v3.741a5.306,5.306,0,0,0-1.307-.135c-2.84,0-4.778,2.119-5.319,5.094a7.9,7.9,0,0,0-.18,1.8v11.674h-3.922Z" transform="translate(-311.638 -352.656)"/></g><g transform="translate(46.784 1.578)"><path class="a" d="M354.841,333.808a2.392,2.392,0,0,1-2.524,2.434,2.307,2.307,0,0,1-2.389-2.434,2.38,2.38,0,0,1,2.434-2.479A2.444,2.444,0,0,1,354.841,333.808Zm-4.462,27.947V339.983H354.3v21.771Z" transform="translate(-349.926 -331.329)"/></g><g transform="translate(55.304 3.922)"><path class="a" d="M379.456,337.456v6.311h5.68v2.975h-5.68v11.765c0,2.7.767,4.237,2.975,4.237a9.114,9.114,0,0,0,2.3-.27l.18,2.975a8.784,8.784,0,0,1-3.561.586,5.729,5.729,0,0,1-4.282-1.668c-1.037-1.262-1.487-3.155-1.487-5.725v-11.9H372.2v-2.975h3.381v-5.274Z" transform="translate(-372.199 -337.456)"/></g><g transform="translate(70.854 9.736)"><path class="a" d="M416.634,364.736c.09,5.364,3.471,7.573,7.482,7.573a14.186,14.186,0,0,0,6.04-1.127l.676,2.84a17.353,17.353,0,0,1-7.257,1.4c-6.716,0-10.728-4.462-10.728-11,0-6.626,3.876-11.765,10.277-11.765,7.077,0,8.97,6.22,8.97,10.232a8.722,8.722,0,0,1-.18,1.848Zm11.629-2.84c.045-2.479-1.037-6.4-5.5-6.4-4.011,0-5.77,3.651-6.085,6.4Z" transform="translate(-412.847 -352.656)"/></g><g transform="translate(93.436 9.736)"><path class="a" d="M475.663,364.736c.09,5.364,3.471,7.573,7.482,7.573a14.187,14.187,0,0,0,6.04-1.127l.676,2.84a17.351,17.351,0,0,1-7.257,1.4c-6.716,0-10.728-4.462-10.728-11,0-6.626,3.876-11.765,10.278-11.765,7.077,0,8.97,6.22,8.97,10.232a8.692,8.692,0,0,1-.18,1.848Zm11.629-2.84c.045-2.479-1.037-6.4-5.5-6.4-4.011,0-5.77,3.651-6.085,6.4Z" transform="translate(-471.876 -352.656)"/></g></g></svg>