<svg xmlns="http://www.w3.org/2000/svg" width="31" height="19" viewBox="0 0 31 19"><defs><style>.a,.c{fill:#fff;}.a{stroke:#08152e;stroke-width:0.5px;}.b{opacity:0;}.d{fill:#ff5f00;}.e{fill:#eb001b;}.f{fill:#f79e1b;}.g{stroke:none;}.h{fill:none;}</style></defs><g transform="translate(-1011 -848)"><g class="a" transform="translate(1011 848)"><rect class="g" width="31" height="19" rx="2"/><rect class="h" x="0.25" y="0.25" width="30.5" height="18.5" rx="1.75"/></g><g transform="translate(1015 850)"><g class="b"><rect class="c" width="23.333" height="15.432"/></g><rect class="d" width="6.155" height="10.053" transform="translate(8.59 2.689)"/><path class="e" d="M15.347,13.847a6.382,6.382,0,0,1,2.442-5.026,6.393,6.393,0,1,0,0,10.053,6.382,6.382,0,0,1-2.442-5.027Z" transform="translate(-6.123 -6.131)"/><path class="f" d="M119.933,64.609V64.4h.089V64.36h-.211V64.4h.083v.206Zm.41,0V64.36h-.064l-.075.178-.075-.178h-.064v.249h.046V64.42l.069.162h.048l.069-.162v.188Z" transform="translate(-98.533 -52.931)"/><path class="f" d="M76.034,13.835A6.393,6.393,0,0,1,65.69,18.861a6.393,6.393,0,0,0,0-10.053,6.393,6.393,0,0,1,10.344,5.026Z" transform="translate(-54.024 -6.119)"/></g></g></svg>