<svg xmlns="http://www.w3.org/2000/svg" width="31" height="19" viewBox="0 0 31 19"><defs><style>.a{fill:#fff;stroke:#08152e;stroke-width:0.5px;}.b{fill:#315881;}.b,.c{fill-rule:evenodd;}.c{fill:#dfa43b;}.d{stroke:none;}.e{fill:none;}</style></defs><g transform="translate(-1163 -536)"><g transform="translate(152 -332)"><g class="a" transform="translate(1011 868)"><rect class="d" width="31" height="19" rx="2"/><rect class="e" x="0.25" y="0.25" width="30.5" height="18.5" rx="1.75"/></g></g><g transform="translate(1163 530)"><path class="b" d="M11.66,44.724a1.353,1.353,0,0,0-.967.25,1.636,1.636,0,0,0-.216.979v3.175h27.63V45.953a1.082,1.082,0,0,0-1.229-1.229Z" transform="translate(-8.792 -37.531)"/><path class="c" d="M10.477,123.54c0,.842.4,1.274,1.183,1.274H36.878a1.11,1.11,0,0,0,1.229-1.274v-3.175H10.477Z" transform="translate(-8.792 -101.007)"/><path class="b" d="M39.281,76.787a.585.585,0,0,1-.08.341L37.21,80.6l-.125-4.233H33.9l1.07.512a.873.873,0,0,1,.467.762l.3,4.5h1.559l3.733-5.77H39.11A.566.566,0,0,1,39.281,76.787Zm12.882-.25.125-.171H50.342c.068.068.091.1.091.125a2.186,2.186,0,0,1-.091.216l-2.834,5.166c-.068.091-.137.171-.216.262h1.6l-.08-.171a2.447,2.447,0,0,1,.25-.808l.341-.637h1.65c.069.535.114.979.137,1.309l-.137.307H53.05l-.3-.432Zm-1.184,3.175H49.8l1.013-1.946ZM46.063,76.07a2.624,2.624,0,0,0-1.6.512A1.293,1.293,0,0,0,43.7,77.72a1.827,1.827,0,0,0,.546,1.354l1.1.762c.4.285.592.535.592.763a.693.693,0,0,1-.3.558,1.066,1.066,0,0,1-.683.216,5.318,5.318,0,0,1-2.026-.808v1.058a4.19,4.19,0,0,0,2.151.672,2.491,2.491,0,0,0,1.7-.592,1.493,1.493,0,0,0,.17-2.492l-1.059-.762c-.352-.285-.546-.535-.546-.728,0-.444.262-.671.8-.671a3.579,3.579,0,0,1,1.616.637l.216-1.1A3.792,3.792,0,0,0,46.063,76.07ZM41.83,82.136c-.023-.239-.068-.455-.091-.683l1.445-4.666.341-.421H41.443c.023.1.046.239.068.341a1.774,1.774,0,0,1-.023.341l-1.445,4.62-.3.467H41.83Z" transform="translate(-28.446 -63.836)"/></g></g></svg>